<?xml version="1.0" encoding="UTF-8"?><svg xmlns="http://www.w3.org/2000/svg" xmlns:xlink="http://www.w3.org/1999/xlink" viewBox="0 0 127.849 127.6"><defs><style>.cls-1{fill:url(#linear-gradient-2);}.cls-2{fill:#fff;}.cls-3{fill:none;}.cls-4{fill:url(#linear-gradient-3);}.cls-5{fill:url(#linear-gradient);}</style><linearGradient id="linear-gradient" x1="63.884" y1="63.886" x2="122.427" y2="5.343" gradientUnits="userSpaceOnUse"><stop offset="0" stop-color="#4dc2f1"/><stop offset=".052" stop-color="#4cbdeb"/><stop offset=".466" stop-color="#459ec4"/><stop offset=".796" stop-color="#418bac"/><stop offset="1" stop-color="#4084a4"/></linearGradient><linearGradient id="linear-gradient-2" x1="5.464" y1="122.306" x2="63.963" y2="63.808" gradientUnits="userSpaceOnUse"><stop offset=".006" stop-color="#e4f4fe"/><stop offset="1" stop-color="#31aedb"/></linearGradient><linearGradient id="linear-gradient-3" x1="21.708" y1="106.062" x2="106.308" y2="21.462" gradientUnits="userSpaceOnUse"><stop offset="0" stop-color="#00a3e5"/><stop offset=".193" stop-color="#0191d1"/><stop offset=".585" stop-color="#0463a0"/><stop offset="1" stop-color="#092d66"/></linearGradient></defs><g id="Farbflächen"><path class="cls-5" d="M127.848,18.374C127.848,8.227,119.622,0,109.475,0H19.185v19.186h81.576c4.364,0,7.901,3.537,7.901,7.901v81.419h19.186V18.374Z"/><path class="cls-1" d="M19.185,100.026V19.187H0v89.982C0,119.399,8.292,127.693,18.522,127.693h90.14v-19.186H27.665c-4.684,0-8.48-3.797-8.48-8.48Z"/><path class="cls-4" d="M100.761,19.187H19.185v80.84c0,4.684,3.797,8.48,8.48,8.48h80.997V27.088c0-4.364-3.537-7.901-7.901-7.901Z"/></g><g id="Weisse_Schrift"><rect class="cls-3" x="27.578" y="41.203" width="81.084" height="67.38"/><path class="cls-2" d="M55.03,91.469h-14.092l-2.461,7.969h-10.986l15.645-42.656h9.668l15.762,42.656h-11.045l-2.49-7.969ZM43.399,83.53h9.17l-4.6-14.795-4.57,14.795Z"/><rect class="cls-3" x="29.412" y=".299" width="71.519" height="65.046"/><path class="cls-2" d="M75.696,52.799h-4.018v-19.419l-5.927,2.021v-3.387l9.43-3.47h.515v24.255Z"/><path class="cls-2" d="M99.669,52.799h-16.254v-2.772l8.053-8.782c1.162-1.295,1.988-2.377,2.481-3.246.492-.868.739-1.74.739-2.614,0-1.151-.324-2.081-.972-2.789s-1.519-1.062-2.614-1.062c-1.307,0-2.319.398-3.039,1.195-.719.797-1.078,1.887-1.078,3.271h-4.035c0-1.472.335-2.797,1.005-3.977.669-1.178,1.627-2.094,2.872-2.747s2.682-.979,4.309-.979c2.346,0,4.197.59,5.553,1.768,1.355,1.18,2.033,2.809,2.033,4.89,0,1.206-.34,2.471-1.021,3.794-.681,1.322-1.796,2.824-3.345,4.507l-5.91,6.325h11.223v3.221Z"/></g></svg>